<svg width="748" height="262" viewBox="0 0 748 262" fill="none" xmlns="http://www.w3.org/2000/svg">
<path d="M0 219.855V162.96L117.905 9.13138H200.477V160.15H230.05V219.855H200.477V262H124.434V219.855H0ZM130.195 86.748L77.1952 160.15H130.195V86.748Z" fill="black"/>
<path d="M260.93 129.946C260.93 89.6747 269.891 57.9491 287.814 34.7695C305.737 11.5898 333.901 0 372.306 0C410.712 0 438.876 11.5898 456.799 34.7695C474.977 57.9491 484.067 89.6747 484.067 129.946C484.067 170.686 475.105 202.646 457.183 225.826C439.26 249.005 410.968 260.595 372.306 260.595C333.645 260.595 305.352 249.005 287.43 225.826C269.763 202.646 260.93 170.686 260.93 129.946ZM409.56 129.946C409.56 108.874 407.127 92.8356 402.263 81.8311C397.398 70.5925 387.412 64.9732 372.306 64.9732C357.2 64.9732 347.215 70.5925 342.35 81.8311C337.485 92.8356 335.053 108.874 335.053 129.946C335.053 151.487 337.357 167.877 341.966 179.115C346.831 190.12 356.944 195.622 372.306 195.622C387.668 195.622 397.654 190.12 402.263 179.115C407.127 167.877 409.56 151.487 409.56 129.946Z" fill="black"/>
<path d="M517.95 219.855V162.96L635.856 9.13138H718.428V160.15H748V219.855H718.428V262H642.385V219.855H517.95ZM648.145 86.748L595.146 160.15H648.145V86.748Z" fill="black"/>
</svg>
